# xmcd
#
# Track frame offsets:
#	150
#	19825
#	41643
#	72475
#	90400
#	112018
#	138438
#	154528
#	177925
#	198648
#	216488
#	226050
#	239763
#	253263
#	268530
#
# Disc length: 3883 seconds
#
# Revision: 1
# Processed by: cddbd v1.5.1PL0 Copyright (c) Steve Scherf et al.
# Submitted via: audiograbber 1.83.01
#
DISCID=dd0f290f
DTITLE=Blues - The Sampler
DYEAR=1994
DGENRE=
TTITLE0=Junior Kimbrough- Sad Days and Lonely Nights
TTITLE1=Junior Kimbrough- Crawling King Snake
TTITLE2=Junior Kimbrough- Meet Me In The City
TTITLE3=Junior Kimbrough- Do The Romp
TTITLE4=RL Burnside- Shake em On Down
TTITLE5=RL Burnside- Goin Down South
TTITLE6=RL Burnside- Jumper On The Line
TTITLE7=RL Burnside- Long Haired Doney
TTITLE8=Cedell Davis- Rock
TTITLE9=Cedell Davis- I Dont Know Why
TTITLE10=Cedell Davis- Shes Got The Devil In Her
TTITLE11=John Weston- Leaving Home
TTITLE12=John Weston- Back To The Country
TTITLE13=David Malone- Youre Touching Me The Wrong Way
TTITLE14=David Malone- I Got The Dog In Me
EXTD=
EXTT0=
EXTT1=
EXTT2=
EXTT3=
EXTT4=
EXTT5=
EXTT6=
EXTT7=
EXTT8=
EXTT9=
EXTT10=
EXTT11=
EXTT12=
EXTT13=
EXTT14=
PLAYORDER=
